<svg width="58" height="58" viewBox="0 0 58 58" fill="none" xmlns="http://www.w3.org/2000/svg">
<path d="M11.1632 39.431C11.1651 37.2309 11.9778 33.1961 18.8814 23.6542C21.5227 20.0008 24.1323 16.8217 25.3976 15.335V7C24.5041 8.0448 23.4968 9.19127 22.4288 10.407C16.2372 17.4547 8 26.8309 8 32.2265C8 35.6902 9.24946 38.9167 11.3688 41.6054C11.2427 40.8963 11.1638 40.1715 11.1632 39.431Z" fill="black"/>
<path d="M25.3976 47.6469V50.9999C19.0554 49.7979 14.3264 45.0847 14.3264 39.4384C14.3264 34.8834 21.2063 25.5836 25.3976 20.3327V31.6728C22.1553 33.5707 19.862 37.9992 19.862 41.02C19.862 44.0409 22.1553 46.6189 25.3976 47.6469Z" fill="black"/>
<path d="M42.7952 39.4384C42.7952 34.8834 35.9152 25.5836 31.724 20.3327V31.6728C34.9663 33.5707 37.2596 37.9992 37.2596 41.02C37.2596 44.0409 34.9663 46.6031 31.724 47.6469V50.9999C38.0662 49.7979 42.7952 45.0847 42.7952 39.4384Z" fill="black"/>
<path d="M23.816 40.2137L28.5608 46.5243L33.3056 40.2137L28.5608 33.9031L23.816 40.2137Z" fill="black"/>
<path d="M34.6929 10.4071C40.8844 17.4547 49.1216 26.8309 49.1216 32.2265V32.2423C49.1216 35.706 47.8721 38.9325 45.7528 41.6212C45.8793 40.9095 45.9584 40.182 45.9584 39.4386C45.9584 37.2402 45.1518 33.2071 38.2402 23.6542C35.5989 20.0008 32.9893 16.8217 31.724 15.335V7C32.6176 8.0448 33.6248 9.19128 34.6929 10.4071Z" fill="black"/>
</svg>
