<svg width="58" height="58" viewBox="0 0 58 58" fill="none" xmlns="http://www.w3.org/2000/svg">
<path d="M53 35.4139C53 33.0608 48.92 31.2613 42.7143 30.2232V33.6836C41.2229 34.9986 36.5086 37.1441 29 37.1441C21.4914 37.1441 16.7771 34.9986 15.2857 33.6836V30.2232C9.08 31.2613 5 33.0608 5 35.4139C5 37.767 8.92571 39.7567 14.9257 41.0198H14.8743C17.4629 41.7119 28.4343 43.2691 26.9429 46.124C25.6229 48.6501 18.7143 45.8125 18.7143 45.8125C21.1143 50.4669 28.3657 51.9202 32.3771 50.4496C36.4057 48.9789 34.1429 45.8125 34.1429 45.8125C42.5257 50.5015 44.4286 44.0823 44.4286 44.0823C41.0171 44.0823 38.9943 43.3037 38.0857 41.833C46.8286 40.7949 52.9829 38.3207 52.9829 35.4312L53 35.4139Z" fill="black"/>
<path d="M42.7143 26.7627C42.7486 23.7175 41.9943 14.0629 38.9771 11.7098C36.9371 10.2045 34.3829 10.4294 32.4971 9.42585C30.3543 8.2839 29 6 29 6C27.7314 9.61618 29.5829 12.7998 32.9771 13.5438C31.5886 14.9107 30.44 16.3814 29 16.3814C26.3086 16.3814 24.6286 11.1907 20.4286 11.1907C16.2286 11.1907 15.2514 23.3023 15.2857 26.7627C16.7771 28.0777 21.4914 30.2232 29 30.2232C36.5086 30.2232 41.2229 28.0777 42.7143 26.7627Z" fill="black"/>
</svg>
