<svg width="58" height="58" viewBox="0 0 58 58" fill="none" xmlns="http://www.w3.org/2000/svg">
<path fill-rule="evenodd" clip-rule="evenodd" d="M22.6445 13.6337C23.623 11.6766 26.8522 7.81146 31.9405 8.00716C32.2666 10.2904 31.8426 15.4929 27.5371 18.037C26.314 17.5477 23.623 15.9821 22.6445 13.6337ZM9.18975 32.9595C11.9296 32.568 20.7689 23.9897 24.8461 19.7494L21.9105 16.5692C16.4308 20.8747 11.1468 29.29 9.18975 32.9595ZM36.8329 40.543C39.9316 39.5645 47.3031 38.4392 52 41.7661C51.2661 44.7833 47.7434 50.7196 39.5238 50.3282C38.0561 48.942 35.463 45.0442 36.8329 40.543ZM33.8974 44.4571C28.0263 45.6802 15.7948 48.6647 13.8377 50.8175C18.6488 50.6544 29.543 49.9368 34.6313 48.3712L33.8974 44.4571ZM25.3354 25.1313C27.0968 32.3723 31.7774 37.2813 33.8975 38.8306C29.7877 42.3533 24.6831 43.2339 22.6445 43.2339C21.6659 42.4511 24.8462 39.3198 26.5586 37.8521C19.5133 42.1576 9.92373 45.0279 6.00962 45.9249C5.61822 44.7506 17.2626 35.9766 23.1338 31.7363C20.7853 32.9105 17.7519 33.3672 16.5287 33.4487C17.1159 30.1217 22.6445 26.5175 25.3354 25.1313ZM37.0776 37.3628C41.9702 34.2642 51.6087 26.1587 51.0216 18.5263C48.3306 16.6508 40.0132 14.9547 28.2709 23.1742C27.9447 25.539 29.2494 31.6874 37.0776 37.3628ZM47.3429 20.4761C44.1627 20.15 36.5791 20.4761 31.6865 24.3902C31.9311 25.4503 32.7629 27.7661 34.1328 28.5489L47.3429 20.4761Z" fill="black"/>
</svg>
