<svg width="58" height="58" viewBox="0 0 58 58" fill="none" xmlns="http://www.w3.org/2000/svg">
<path d="M42.8182 8.42857V11.8571C42.8182 11.8571 34.4927 5 29 5C19.7591 5 16.9091 17 16.9091 17C23.1791 16.3829 23.8182 22.1429 23.8182 22.1429C17.6691 18.2686 15.1818 22.1429 15.1818 22.1429V18.7143C8.73909 24.3029 15.1818 27.2857 15.1818 27.2857C15.1818 27.2857 10 29.4286 10 34.7257C10 47.1371 27.2727 53 27.2727 53C27.2727 53 44.5455 47.1371 44.5455 34.7257C44.5455 29.4286 39.3636 25.5714 39.3636 25.5714C39.3636 25.5714 45.8064 24.3029 39.3636 18.7143V22.1429C39.3636 22.1429 36.7036 18.32 30.7273 22.1429C30.7273 22.1429 31.3664 16.3829 37.6364 17C37.6364 17 35.8573 16.04 34.6827 14.7886C34.0091 14.12 34.0091 13.04 34.6827 12.3714C35.3045 11.7543 36.2545 11.7371 36.9282 12.2343C36.9282 12.2343 38.5518 13.3486 40.4864 14.5829C42.2482 15.7143 44.2691 17 45.8409 17C47.24 17 48 15.8343 48 14.9771C48 13.0914 46.1864 10.3143 42.8182 8.42857ZM35.9091 27.2857C38.0855 28.7086 35.9091 41 35.9091 41L32.4545 37.5714L30.7273 44.4286L27.2727 37.5714L23.8182 44.4286L22.0909 37.5714L18.6364 41C18.6364 41 16.46 28.7086 18.6364 27.2857C20.8127 25.8629 23.8182 32.4286 23.8182 32.4286L27.2727 27.2857L30.7273 32.4286C30.7273 32.4286 33.7327 25.8629 35.9091 27.2857Z" fill="black"/>
</svg>
