<svg width="58" height="58" viewBox="0 0 58 58" fill="none" xmlns="http://www.w3.org/2000/svg">
<path d="M32.2693 51C40.4836 46.1111 43.7693 41.2222 43.7693 41.2222V34.7037L37.1979 36.3333C37.1979 36.3333 32.2693 42.8519 32.2693 51Z" fill="black"/>
<path d="M14.1979 34.7037V41.2222C14.1979 41.2222 17.4836 46.1111 25.6979 51C25.6979 42.8519 20.7693 36.3333 20.7693 36.3333L14.1979 34.7037Z" fill="black"/>
<path d="M40.1714 10.8785C37.0993 8.46667 33.2221 7 28.9836 7C24.745 7 20.8679 8.46667 17.7957 10.8785L28.9836 16.403L40.1714 10.8785Z" fill="black"/>
<path d="M47.055 26.5556V24.9259C47.055 22.0741 46.365 19.3852 45.1821 17.0059C45.8229 15.9793 46.25 14.3496 45.4286 11.9378L29 20.037L12.555 11.9378C11.7171 14.3496 12.1607 15.9793 12.8014 17.0059C11.6021 19.4015 10.9286 22.0741 10.9286 24.9259V26.5556L6 31.4444C6 36.6756 10.9286 39.56 10.9286 39.56V34.6711L14.2143 31.4444L22.4286 33.0741L29 42.8519L35.5714 33.0741L43.7857 31.4444L47.0714 34.6711V39.56C47.0714 39.56 52 36.6756 52 31.4444L47.0714 26.5556H47.055ZM28.9836 31.4444C26.7164 31.4444 24.8764 29.6193 24.8764 27.3704C24.8764 25.1215 26.7164 23.2963 28.9836 23.2963C31.2507 23.2963 33.0907 25.1215 33.0907 27.3704C33.0907 29.6193 31.2507 31.4444 28.9836 31.4444Z" fill="black"/>
</svg>
