<svg width="58" height="58" viewBox="0 0 58 58" fill="none" xmlns="http://www.w3.org/2000/svg">
<path d="M20.9583 13.7692H14.125V17.1538H20.9583V13.7692Z" fill="black"/>
<path d="M39.75 45.9231H32.9167L36.3333 51H43.1667C43.1667 51 43.1667 45.9231 39.75 45.9231Z" fill="black"/>
<path d="M46.5833 27.3077H29.5V23.9231H44.875L41.4583 20.5385L35.2229 17.4585C35.9233 16.3923 36.3333 15.14 36.3333 13.7692C36.3333 10.0292 33.2754 7 29.5 7C25.7246 7 22.6667 10.0292 22.6667 13.7692H29.5V17.1538H24.375L17.5417 20.5385L14.125 23.9231L10.7083 32.3846H17.5417L19.25 29L22.6667 27.3077L21.6417 32.3846H29.5V35.7692H9V39.1538H20.275L19.25 44.2308L17.3025 45.5169C15.4917 46.7185 14.8596 49.0708 15.8333 51H22.6667L29.5 42.5385H39.4083L37.0167 30.6923H40.6042L44.875 39.1538H50L46.5833 27.3077Z" fill="black"/>
</svg>
