<svg width="58" height="58" viewBox="0 0 58 58" fill="none" xmlns="http://www.w3.org/2000/svg">
<path d="M34.9053 21.8481C32.6583 22.8205 30.8765 24.6263 29.9999 26.8608C29.1851 24.7812 27.5925 23.0744 25.5678 22.0625L25.3209 18.2006L22.2551 18.1649C21.4485 18.157 20.79 17.4784 20.7942 16.6607L20.7983 16.0495C20.8065 15.2319 21.4691 14.5731 22.2797 14.581L26.7078 14.6326L26.7448 9.36187C26.753 7.49251 28.2756 5.98035 30.1275 6.00019C31.9793 6.02004 33.4855 7.57189 33.4732 9.44125L33.4361 14.712L37.7448 14.7636C38.5514 14.7715 39.2098 15.4502 39.2057 16.2678L39.2016 16.879C39.1934 17.6966 38.5308 18.3554 37.7201 18.3475L35.3209 18.3197L34.9053 21.8481Z" fill="black"/>
<path d="M34.9095 21.8478C36.07 21.3477 37.3498 21.062 38.7037 21.062C43.8396 21.062 48.0042 25.0785 48 30.0317C48 32.3456 47.0906 34.4531 45.6008 36.0446L29.9301 54L14.4445 36.0922C14.251 35.8858 14.0658 35.6716 13.8889 35.4493L13.8724 35.4294C12.6955 33.9252 12 32.0598 12 30.0317C12 25.0785 16.1646 21.062 21.2963 21.0659C22.8354 21.0659 24.284 21.4271 25.5638 22.0661L27.7901 46.729L31.5021 41.3114L34.9095 21.8478Z" fill="black"/>
</svg>
