<svg width="58" height="58" viewBox="0 0 58 58" fill="none" xmlns="http://www.w3.org/2000/svg">
<path d="M42.2482 26.12L46.1345 22.2629C48.8982 19.52 48.5009 14.96 45.2882 12.7314L34.1645 5C33.1627 5.99429 33.0073 7.55429 33.7845 8.73714L39.3464 17C36.2891 14.7371 32.6445 13.5714 29 13.5714C25.3555 13.5714 21.7109 14.7371 18.6536 17.0171L24.2155 8.73714C25.01 7.57143 24.8545 5.99429 23.8355 5L12.7118 12.7314C9.49909 14.96 9.10182 19.52 11.8655 22.2629L15.7518 26.12C17.4273 21.8343 22.73 18.7143 29.0173 18.7143C35.3045 18.7143 40.6073 21.8514 42.2827 26.12H42.2482Z" fill="black"/>
<path d="M42.6455 30.5771C42.6455 30.5771 42.6109 30.6457 42.6109 30.68C41.54 35.5657 35.8573 39.2857 29 39.2857C22.1427 39.2857 16.46 35.5657 15.3891 30.68C15.3891 30.6457 15.3545 30.6114 15.3545 30.5771L10.4491 25.7086C10.1727 26.7714 10 27.8686 10 29C10 36.5771 16.7364 42.8686 25.5973 44.1714C25.5973 44.2571 25.5455 44.3429 25.5455 44.4286V51.2857C25.5455 52.2286 26.3227 53 27.2727 53C28.2227 53 29 52.2286 29 51.2857V44.4286C30.1745 44.4286 31.3145 44.3257 32.4373 44.1714V47C32.4373 48.4229 33.5945 49.5714 35.0282 49.5714C36.4618 49.5714 37.6191 48.4229 37.6191 47V42.7486C43.7682 40.1943 48 35.0171 48 29.0171C48 27.8857 47.8445 26.7886 47.5509 25.7429L42.6455 30.6114V30.5771Z" fill="black"/>
<path d="M38.8455 26.0686C38.1718 25.4 37.0836 25.4 36.41 26.0686L35.5982 26.8743L33.8364 24.5429C33.2664 23.7886 32.1782 23.6343 31.4182 24.2C30.6582 24.7657 30.5027 25.8457 31.0727 26.6L33.1282 29.3257L31.2282 31.2114C30.5545 31.88 30.5545 32.96 31.2282 33.6286C31.5736 33.9714 32.0055 34.1257 32.4545 34.1257C32.9036 34.1257 33.3355 33.9543 33.6809 33.6286L35.2355 32.0857L36.2545 33.44C36.6 33.8857 37.1182 34.1257 37.6364 34.1257C37.9991 34.1257 38.3618 34.0229 38.6727 33.7829C39.4327 33.2171 39.5882 32.1371 39.0182 31.3829L37.6882 29.6343L38.8455 28.4857C39.5191 27.8171 39.5191 26.7371 38.8455 26.0686Z" fill="black"/>
<path d="M19.31 33.8C19.6209 34.0229 19.9836 34.1429 20.3464 34.1429C20.8645 34.1429 21.3827 33.9029 21.7282 33.4571L22.7473 32.1029L24.3018 33.6457C24.6473 33.9886 25.0791 34.1429 25.5282 34.1429C25.9773 34.1429 26.4091 33.9714 26.7545 33.6457C27.4282 32.9771 27.4282 31.8971 26.7545 31.2286L24.8545 29.3429L26.91 26.6171C27.48 25.8629 27.3245 24.7829 26.5645 24.2171C25.8045 23.6514 24.7164 23.8057 24.1464 24.56L22.3845 26.8914L21.5727 26.0857C20.8991 25.4171 19.8109 25.4171 19.1373 26.0857C18.4636 26.7543 18.4636 27.8343 19.1373 28.5029L20.2945 29.6514L18.9645 31.4C18.3945 32.1543 18.55 33.2343 19.31 33.8Z" fill="black"/>
</svg>
