<svg width="58" height="58" viewBox="0 0 58 58" fill="none" xmlns="http://www.w3.org/2000/svg">
<path d="M29 26.272L22.4892 37.4832H35.5108L29 26.272Z" fill="black"/>
<path d="M30.7692 42.2H27.2308V51H30.7692V42.2Z" fill="black"/>
<path d="M29 7L20.7554 21.1856L25.4085 23.8608L29 17.6656L32.5915 23.8608L37.2446 21.1856L29 7Z" fill="black"/>
<path d="M14.5473 23.0808L12.777 26.1286L20.4364 30.5313L22.2067 27.4835L14.5473 23.0808Z" fill="black"/>
<path d="M52 46.6L43.7554 32.4144L39.12 35.072L42.7115 41.2672H35.5108V46.6H52Z" fill="black"/>
<path d="M43.4457 23.0672L35.7863 27.4699L37.5566 30.5177L45.216 26.115L43.4457 23.0672Z" fill="black"/>
<path d="M6 46.6H22.4892V41.2672H15.2885L18.88 35.072L14.2446 32.4144L6 46.6Z" fill="black"/>
</svg>
