<svg width="58" height="58" viewBox="0 0 58 58" fill="none" xmlns="http://www.w3.org/2000/svg">
<path d="M52 11.5177L34.2325 6L29 13.3186L23.7675 6L6 11.5177L10.1975 29.91L19.0525 30.8488L15.43 39.1062L16.8867 40.5048L29 52L42.57 39.1254L38.9475 30.868L47.8025 29.9292L52 11.5369V11.5177ZM42.1483 23.2045L35.3058 23.7218L36.82 26.3848L34.0792 31.2128H31.07L34.0408 37.4969L29 42.2674L23.9592 37.4969L26.93 31.2128H23.9208L21.18 26.404L22.6942 23.7409L15.8517 23.2237L14.2992 16.4032L20.8925 14.3532L24.7642 20.1199L26.2783 17.4761H31.76L33.2742 20.1199L37.1458 14.3532L43.7392 16.4032L42.1867 23.2237L42.1483 23.2045Z" fill="black"/>
</svg>
