<svg width="58" height="58" viewBox="0 0 58 58" fill="none" xmlns="http://www.w3.org/2000/svg">
<path d="M42.8038 29.0084C41.616 30.5622 40.3132 31.9818 38.9913 33.3055C39.9875 34.1879 41.0029 35.0512 42.0375 35.876C40.294 37.2573 38.6272 38.7344 36.9988 40.2691C36.2132 39.2907 35.4086 38.3315 34.5656 37.4491C33.6843 36.5091 32.7647 35.6075 31.8451 34.7442C36.7305 30.3704 41.6735 25.8239 44.1258 18.515C46.4057 18.1505 48.1491 16.1746 48.1491 13.7959C48.1491 11.1485 46.0033 9 43.3594 9C40.7155 9 38.5698 11.1485 38.5698 13.7959C38.5698 15.3114 39.2978 16.6542 40.409 17.5366C39.6235 19.8003 38.5506 21.7762 37.2861 23.5603C34.2399 20.2415 31.4619 16.6734 29.0479 12.8367C29.0479 12.8559 29.0096 12.8942 28.9904 12.9134C26.5764 16.7309 23.7793 20.2799 20.7139 23.5794C19.4302 21.7954 18.3765 19.8195 17.5718 17.5558C18.683 16.6734 19.4111 15.3305 19.4111 13.8151C19.4111 11.1677 17.2653 9.01918 14.6214 9.01918C11.9775 9.01918 9.83174 11.1677 9.83174 13.8151C9.83174 16.1938 11.5752 18.1697 13.8551 18.5342C16.3074 25.8431 21.2503 30.4088 26.1358 34.7634C25.2162 35.6267 24.2965 36.5283 23.4152 37.4683C22.5723 38.3507 21.7676 39.2907 20.9821 40.2691C19.3536 38.7344 17.6868 37.2189 15.9242 35.8377C16.9588 35.032 17.955 34.1687 18.9513 33.3055C17.6293 31.9818 16.3457 30.5622 15.1579 28.9892C12.284 31.483 9.23782 33.785 6 35.8185C10.4257 38.6193 14.5065 41.9188 18.2232 45.5829C19.0279 46.3694 19.8134 47.1751 20.5798 48C22.6681 43.6262 25.6951 40.4033 28.9904 37.3532C32.2857 40.4033 35.2936 43.6262 37.4011 47.9808C38.1866 47.1367 39.0104 46.331 39.8342 45.5253C43.5319 41.9188 47.5935 38.6768 52 35.9144C48.7622 33.8618 45.6968 31.5406 42.823 29.0084H42.8038ZM29.1245 32.0394C29.1245 32.0394 29.0479 32.1161 29.0096 32.1545C29.0096 32.1545 28.9329 32.0777 28.8755 32.0394C27.3619 30.6965 25.8867 29.3537 24.4881 27.9533C26.0591 26.3035 27.5727 24.5962 28.9904 22.8121C28.9904 22.8121 28.9904 22.7929 29.0096 22.7737C30.4273 24.577 31.9409 26.2843 33.4927 27.9341C32.0941 29.3345 30.6189 30.6773 29.1054 32.0202L29.1245 32.0394Z" fill="black"/>
</svg>
