<svg width="58" height="58" viewBox="0 0 58 58" fill="none" xmlns="http://www.w3.org/2000/svg">
<path fill-rule="evenodd" clip-rule="evenodd" d="M32.8077 14.2143V17.5C37.5708 18.3872 41.0769 20.8022 41.0769 24.0715L34.3788 28.9179L39.4231 33.9286L36.1154 37.2143L17.9231 24.0715C17.9231 20.8022 21.4292 18.3872 26.1923 17.5V14.2143L22.8846 10.9286L29.5 6L36.1154 10.9286L32.8077 14.2143ZM26.1592 22.4286L29.5 25.7472L32.8408 22.4286L29.5 19.11L26.1592 22.4286Z" fill="black"/>
<path d="M12.9615 14.2143L8 17.5V33.9286L12.9615 30.6429V14.2143Z" fill="black"/>
<path d="M46.0385 30.6429L51 33.9286V17.5L46.0385 14.2143V30.6429Z" fill="black"/>
<path d="M36.1154 42.1428L29.5 52L22.8846 42.1428L26.1923 40.5L19.5769 33.9285L22.1404 31.3821L36.1154 42.1428Z" fill="black"/>
<path d="M46.0385 45.4286L41.0769 42.1429V32.2858L46.0385 35.5715V45.4286Z" fill="black"/>
<path d="M17.9231 42.1429L12.9615 45.4286V35.5715L17.9231 32.2858V42.1429Z" fill="black"/>
</svg>
