<svg width="58" height="58" viewBox="0 0 58 58" fill="none" xmlns="http://www.w3.org/2000/svg">
<path d="M32.1496 50.8136C33.9078 49.3812 32.3844 47.6004 32.3844 47.6004L37.228 40.8738L41.0826 42.9175C42.094 43.4538 43.3665 43.0644 43.8983 42.0367C44.4372 41.0129 44.0477 39.7423 43.0292 39.2023L41.2581 38.2632C44.2429 36.2401 61.5675 23.3087 44.7652 6L30.7227 32.6771L28.5724 31.537C27.5539 30.997 26.2886 31.3901 25.7496 32.414C25.2107 33.4378 25.6002 34.7084 26.6187 35.2485L28.769 36.3886L24.0345 45.383C23.2111 46.9472 24.1428 49.0782 26.1091 50.1208L28.4007 51.3359C30.2463 52.3326 30.3914 52.2459 32.1496 50.8136Z" fill="black"/>
<path d="M30.1741 25.7857L28.8005 28.2367C25.0671 25.7386 15.0802 21.6795 5 25.4264C12.053 20.5832 18.5155 18.407 26.5012 19.3695C23.7079 16.1914 19.5205 13.3282 14.3335 12.7802C24.1336 9.5016 30.2007 9.50166 36.2572 15.3002L30.2006 25.8946C30.1921 25.8585 30.1833 25.8222 30.1741 25.7857Z" fill="black"/>
</svg>
