<svg width="58" height="58" viewBox="0 0 58 58" fill="none" xmlns="http://www.w3.org/2000/svg">
<path d="M38.9615 29C38.9615 31.0915 38.3781 33.0286 37.4004 34.6572L50 37.5715L43.6923 30.7143L50 22.1429L37.3846 18.7143L34.2308 5L29.5 18.7143C34.7196 18.7143 38.9615 23.3257 38.9615 29Z" fill="black"/>
<path d="M32.5907 38.7029L32.6538 51.2686L37.3846 44.4115L43.6923 46.1257L46.8461 44.4115L36.2492 36.1829C35.24 37.2972 33.9942 38.1715 32.5907 38.7029Z" fill="black"/>
<path d="M21.5996 23.3428C20.6219 24.9714 20.0385 26.9085 20.0385 29C20.0385 34.6743 24.2804 39.2857 29.5 39.2857L24.7692 53L21.6154 39.2857L9 35.8571L15.3077 27.2857L9 20.4285L21.5996 23.3428Z" fill="black"/>
<path d="M26.4091 19.28L26.3461 6.71425L21.6154 13.5714L15.3077 11.8571L12.1538 13.5714L22.7508 21.8C23.76 20.6857 25.0057 19.8115 26.4091 19.28Z" fill="black"/>
<path d="M27.9231 23.857C27.9231 24.7999 28.6327 25.5713 29.5 25.5713C30.3673 25.5713 31.0769 24.7999 31.0769 23.857V22.3828C33.7892 23.1542 35.8077 25.8113 35.8077 28.9999C35.8077 32.1885 33.7892 34.8456 31.0769 35.6171V34.1428C31.0769 33.1999 30.3673 32.4285 29.5 32.4285C28.6327 32.4285 27.9231 33.1999 27.9231 34.1428V35.6171C25.2108 34.8456 23.1923 32.1885 23.1923 28.9999C23.1923 25.8113 25.2108 23.1542 27.9231 22.3828V23.857Z" fill="black"/>
</svg>
