<svg width="58" height="58" viewBox="0 0 58 58" fill="none" xmlns="http://www.w3.org/2000/svg">
<path d="M16.7778 50L15.1481 41.9231L21.6667 40.3077L18.4074 33.8462L24.9259 30.6154L21.6667 25.7692L28.1852 17.6923L34.7037 25.7692L31.4444 30.6154L37.963 33.8462L34.7037 40.3077L41.2222 41.9231L39.5926 50L44.4815 48.6915L51 43.8454V40.3077L47.7407 37.0769L45.1007 27.5946L51 19.3077L39.0548 10.8915C36.7244 9.14692 32.7319 8 28.1852 8C21.5363 8 16.077 10.4554 15.2622 13.6538L7 41.9231L11.8889 48.3846L16.7778 50ZM46.0948 20.2608L43.4059 23.3785C42.4281 22.8454 41.2711 21.9569 40.7007 20.5192C40.2281 19.34 40.3422 17.7892 40.6681 16.3677L46.1111 20.2608H46.0948Z" fill="black"/>
</svg>
