<svg width="58" height="58" viewBox="0 0 58 58" fill="none" xmlns="http://www.w3.org/2000/svg">
<path d="M29.0265 26.1758L24.6372 28.9118H24.6195C19.8053 31.9126 13.5398 31.1889 9.52212 27.182C18.2832 22.0277 25.5929 14.7376 30.7611 6C35.9292 14.7376 43.2389 22.0277 52 27.182C43.2389 32.3362 35.9292 39.6264 30.7611 48.3639C26.7434 44.357 26.0177 38.126 29.0265 33.3071L31.7699 28.9118L34.3009 32.4775L37.8407 20.1213L25.4513 23.6516L29.0265 26.1758Z" fill="black"/>
<path d="M14.8496 52L14.177 50.8526C12.4602 47.9225 10.0354 45.4689 7.13274 43.739L6 43.0683L7.13274 42.3975C10.0354 40.6676 12.4602 38.2141 14.177 35.2839L14.8496 34.1365L15.5221 35.2839C17.2389 38.2141 19.6637 40.6676 22.5664 42.3975L23.6991 43.0683L22.5664 43.739C19.6637 45.4689 17.2389 47.9225 15.5221 50.8526L14.8496 52Z" fill="black"/>
</svg>
