<svg width="58" height="58" viewBox="0 0 58 58" fill="none" xmlns="http://www.w3.org/2000/svg">
<path d="M29.4 41.5895V6L34.9684 21.2526L39.0842 17.1368V33.6C38.3095 36.8926 32.3053 40.2982 29.4 41.5895Z" fill="black"/>
<path d="M29.4 41.5895V6L23.8316 21.2526L19.7158 17.1368V33.6C20.4905 36.8926 26.4947 40.2982 29.4 41.5895Z" fill="black"/>
<path d="M29.4 52V46.9158L40.0526 39.8947C42.3768 36.9895 43.2807 32.7123 43.4421 30.9368V13.0211L47.8 8.90526V29.9684C47.8 39.0716 43.4421 43.7684 41.2632 44.9789L29.4 52Z" fill="black"/>
<path d="M29.4 52V46.9158L18.7474 39.8947C16.4232 36.9895 15.5193 32.7123 15.3579 30.9368V13.0211L11 8.90526V29.9684C11 39.0716 15.3579 43.7684 17.5368 44.9789L29.4 52Z" fill="black"/>
</svg>
