<svg width="58" height="58" viewBox="0 0 58 58" fill="none" xmlns="http://www.w3.org/2000/svg">
<path d="M18.8986 33.195C20.7386 34.5421 23.3343 34.1479 24.6814 32.3079L18.0114 27.4286C16.6643 29.2686 17.0586 31.8643 18.8986 33.2114V33.195Z" fill="black"/>
<path d="M37.9064 27.4123C39.2536 29.2687 38.8593 31.848 37.0193 33.1951V33.1787C35.1793 34.5423 32.5836 34.1315 31.2364 32.2915L37.9064 27.4123Z" fill="black"/>
<path fill-rule="evenodd" clip-rule="evenodd" d="M29 47C40.7257 47 49.7943 35.1527 53 29L46.1771 23.8945L47.8571 15.9091L37.0743 17.0545L29 11L20.9257 17.0545L10.1429 15.9091L11.8229 23.8945L5 29C8.20571 35.1527 17.2743 47 29 47ZM20.4286 22.4545L25.5714 25.7273H32.4286L37.5714 22.4545L44.4286 27.3636L42.7143 35.5455L35.8571 38.8018L32.4286 35.5455H25.5714L22.1429 38.8018L15.2857 35.5455L13.5714 27.3636L20.4286 22.4545Z" fill="black"/>
</svg>
