<svg width="58" height="58" viewBox="0 0 58 58" fill="none" xmlns="http://www.w3.org/2000/svg">
<path d="M26.9794 29.3615L33.5916 35.9277H33.6089L29.5 40.0079L22.9568 33.5104C22.9568 33.5104 18.589 29.1901 13.9622 24.5269C9.33534 19.8466 13.6859 14.0863 18.7962 11.5147C24.2862 8.73738 25.4429 5 25.4429 5C27.3072 9.01656 24.7033 12.199 22.531 14.854C21.2634 16.4032 20.1428 17.7728 20.1428 19.0237C20.1428 22.4182 26.2025 28.5729 26.9794 29.3615Z" fill="black"/>
<path d="M31.658 29.1729C31.658 29.1729 38.8572 22.6582 38.8572 19.0237C38.8572 17.7645 37.733 16.3908 36.4628 14.8389C34.2918 12.1862 31.6946 9.01276 33.5571 5C33.5571 5 34.7138 8.73738 40.2038 11.5147C45.3141 14.0863 49.6647 19.8466 45.0378 24.5269C40.411 29.1901 36.0431 33.5104 36.0431 33.5104L31.658 29.1729Z" fill="black"/>
<path d="M13.0632 36.6858L17.1643 32.6119L33.5987 48.9261L29.4976 53L13.0632 36.6858Z" fill="black"/>
<path d="M31.9445 42.4287L41.613 32.8276L45.7148 36.9008L36.0463 46.5019L31.9445 42.4287Z" fill="black"/>
</svg>
