<svg width="58" height="58" viewBox="0 0 58 58" fill="none" xmlns="http://www.w3.org/2000/svg">
<path d="M33.4789 20.6359L7 47.1204L10.8787 51L37.3576 24.5155L33.4789 20.6359Z" fill="black"/>
<path d="M43.6862 14.3154V21.6308H36.3723V14.3154H43.6862ZM47.3431 10.6577H32.7154V25.2885H47.3431V10.6577Z" fill="black"/>
<path d="M47.3431 34.4327V41.7481H40.0293V34.4327H47.3431ZM51 30.775H36.3723V45.4058H51V30.775Z" fill="black"/>
<path d="M23.5732 10.6577V17.9731H16.2593V10.6577H23.5732ZM27.2301 7H12.6024V21.6308H27.2301V7Z" fill="black"/>
<path d="M31.5818 35.3471L23.5732 43.5769V50.8923L33.8491 40.8337H38.2008V35.3471H31.5818Z" fill="black"/>
<path d="M22.6589 19.8019H17.1736V24.1546L7.11705 34.4327H14.4309L22.6589 26.4224V19.8019Z" fill="black"/>
</svg>
