<svg width="58" height="58" viewBox="0 0 58 58" fill="none" xmlns="http://www.w3.org/2000/svg">
<path fill-rule="evenodd" clip-rule="evenodd" d="M35.558 8L43.0285 15.1777C39.1398 18.105 34.2788 19.8415 28.9744 19.8415C23.67 19.8415 18.792 18.105 14.9203 15.1942L22.4079 8H35.558ZM6 23.8438L12.2254 17.8404L20.02 28.5077L10.7586 37.5542L6 23.8438ZM13.1123 39.7704L27.3541 51V38.5631L21.9473 31.1208L13.1123 39.7538V39.7704ZM37.997 28.5077L45.7746 17.8404L52 23.8438L47.2414 37.5542L37.997 28.5077ZM30.6459 38.5631V51L44.9047 39.7704L36.0697 31.1373L30.6459 38.5796V38.5631ZM18.4679 20.8835C21.7086 22.2562 25.2562 23.0335 29.0085 23.0335C32.7608 23.0335 36.3085 22.2562 39.5491 20.8835L29.0085 35.305L18.4679 20.8835Z" fill="black"/>
</svg>
