<svg width="58" height="58" viewBox="0 0 58 58" fill="none" xmlns="http://www.w3.org/2000/svg">
<path d="M40.5 14H35.5714C34.2079 16.2014 32.8607 20.4236 32.4336 25.5H25.55C25.1229 20.4236 23.7757 16.2014 22.4121 14H17.4836C15.8407 16.6614 14.1979 22.2636 14.1979 28.7857C14.1979 35.3079 15.8407 40.91 17.4836 43.5714H22.4121C23.7757 41.37 25.1229 37.1479 25.55 32.0714H32.4336C32.8607 37.1479 34.2079 41.37 35.5714 43.5714H40.5C42.1429 40.91 43.7857 35.3079 43.7857 28.7857C43.7857 22.2636 42.1429 16.6614 40.5 14Z" fill="black"/>
<path d="M48.7143 17.2857H43.7693C45.4943 20.3085 47.0714 23.1178 47.0714 28.7857C47.0714 34.4535 45.5107 37.2628 43.7857 40.2857H48.7143C50.3571 38.2157 52 33.8621 52 28.7857C52 23.7093 50.3571 19.3557 48.7143 17.2857Z" fill="black"/>
<path d="M9.28572 17.2857H14.2143C12.4893 20.3085 10.9286 23.1178 10.9286 28.7857C10.9286 34.4535 12.5057 37.2628 14.2307 40.2857H9.28572C7.64286 38.2157 6 33.8621 6 28.7857C6 23.7093 7.64286 19.3557 9.28572 17.2857Z" fill="black"/>
</svg>
